<svg width="50" height="50" viewBox="0 0 50 50" fill="none" xmlns="http://www.w3.org/2000/svg">
<circle cx="25" cy="25" r="24.5" stroke="#7283FF"/>
<path d="M25.4997 12C18.0441 12 12 18.0664 12 25.5496C12 31.9038 16.3588 37.2358 22.2387 38.7003V29.6903H19.4551V25.5496H22.2387V23.7654C22.2387 19.1536 24.3182 17.0161 28.8293 17.0161C29.6846 17.0161 31.1604 17.1846 31.7641 17.3526V21.1059C31.4456 21.0723 30.8921 21.0555 30.2047 21.0555C27.9912 21.0555 27.1359 21.8972 27.1359 24.0852V25.5496H31.5454L30.7878 29.6903H27.1359V39C33.8204 38.1897 39 32.4772 39 25.5496C38.9995 18.0664 32.9554 12 25.4997 12Z" fill="white"/>
</svg>
