<svg width="50" height="50" viewBox="0 0 50 50" fill="none" xmlns="http://www.w3.org/2000/svg">
<circle cx="25" cy="25" r="24.5" stroke="url(#paint0_linear_625_3)"/>
<path d="M25.0076 14.3415C28.4831 14.3415 28.8947 14.3567 30.2615 14.4177C31.5318 14.4735 32.2177 14.6869 32.675 14.8646C33.2797 15.0983 33.7166 15.3827 34.1688 15.8347C34.6261 16.2919 34.9056 16.7236 35.1393 17.328C35.3172 17.7851 35.5306 18.4759 35.5865 19.7406C35.6474 21.1119 35.6627 21.5233 35.6627 24.9924C35.6627 28.4665 35.6474 28.8779 35.5865 30.2442C35.5306 31.514 35.3172 32.1996 35.1393 32.6568C34.9056 33.2612 34.6211 33.698 34.1688 34.15C33.7115 34.6072 33.2797 34.8865 32.675 35.1201C32.2177 35.2979 31.5267 35.5112 30.2615 35.5671C28.8896 35.6281 28.478 35.6433 25.0076 35.6433C21.5321 35.6433 21.1206 35.6281 19.7538 35.5671C18.4835 35.5112 17.7975 35.2979 17.3402 35.1201C16.7356 34.8865 16.2986 34.6021 15.8464 34.15C15.3891 33.6929 15.1096 33.2612 14.8759 32.6568C14.6981 32.1996 14.4847 31.5089 14.4288 30.2442C14.3678 28.8728 14.3526 28.4614 14.3526 24.9924C14.3526 21.5183 14.3678 21.1069 14.4288 19.7406C14.4847 18.4708 14.6981 17.7851 14.8759 17.328C15.1096 16.7236 15.3942 16.2868 15.8464 15.8347C16.3037 15.3776 16.7356 15.0983 17.3402 14.8646C17.7975 14.6869 18.4886 14.4735 19.7538 14.4177C21.1206 14.3567 21.5321 14.3415 25.0076 14.3415ZM25.0076 12C21.4763 12 21.0342 12.0152 19.6471 12.0762C18.265 12.1371 17.3148 12.3606 16.4917 12.6806C15.633 13.0158 14.9064 13.4577 14.1849 14.184C13.4583 14.9053 13.0162 15.6316 12.6809 16.4849C12.3608 17.3128 12.1372 18.2575 12.0762 19.639C12.0152 21.0307 12 21.4726 12 25.0025C12 28.5325 12.0152 28.9744 12.0762 30.361C12.1372 31.7425 12.3608 32.6923 12.6809 33.5151C13.0162 34.3735 13.4583 35.0998 14.1849 35.8211C14.9064 36.5423 15.633 36.9893 16.4866 37.3194C17.3148 37.6394 18.2599 37.8629 19.642 37.9238C21.0291 37.9848 21.4712 38 25.0025 38C28.5339 38 28.976 37.9848 30.3631 37.9238C31.7452 37.8629 32.6953 37.6394 33.5185 37.3194C34.3721 36.9893 35.0987 36.5423 35.8202 35.8211C36.5417 35.0998 36.9889 34.3735 37.3191 33.5202C37.6392 32.6923 37.8628 31.7476 37.9238 30.3661C37.9848 28.9795 38 28.5376 38 25.0076C38 21.4776 37.9848 21.0357 37.9238 19.6492C37.8628 18.2676 37.6392 17.3178 37.3191 16.495C36.999 15.6316 36.557 14.9053 35.8304 14.184C35.1089 13.4628 34.3823 13.0158 33.5286 12.6857C32.7004 12.3657 31.7553 12.1422 30.3733 12.0813C28.981 12.0152 28.539 12 25.0076 12Z" fill="white"/>
<path d="M25 18C21.1354 18 18 21.1354 18 25C18 28.8646 21.1354 32 25 32C28.8646 32 32 28.8646 32 25C32 21.1354 28.8646 18 25 18ZM25 29.5407C22.4928 29.5407 20.4593 27.5072 20.4593 25C20.4593 22.4928 22.4928 20.4593 25 20.4593C27.5072 20.4593 29.5407 22.4928 29.5407 25C29.5407 27.5072 27.5072 29.5407 25 29.5407Z" fill="white"/>
<defs>
<linearGradient id="paint0_linear_625_3" x1="0" y1="0" x2="50" y2="50" gradientUnits="userSpaceOnUse">
<stop stop-color="#FF8272"/>
<stop offset="1" stop-color="#FF3DCF"/>
</linearGradient>
</defs>
</svg>
