<svg width="89" height="89" viewBox="0 0 89 89" fill="none" xmlns="http://www.w3.org/2000/svg">
<rect width="89" height="89" rx="10" fill="#00AC84"/>
<path d="M54.3327 42.6663C54.3327 48.4915 47.8705 54.5582 45.7005 56.4318C45.4984 56.5839 45.2523 56.666 44.9993 56.666C44.7464 56.666 44.5003 56.5839 44.2982 56.4318C42.1282 54.5582 35.666 48.4915 35.666 42.6663C35.666 40.191 36.6493 37.817 38.3997 36.0667C40.15 34.3163 42.524 33.333 44.9993 33.333C47.4747 33.333 49.8487 34.3163 51.599 36.0667C53.3494 37.817 54.3327 40.191 54.3327 42.6663Z" stroke="black" stroke-width="2" stroke-linecap="round" stroke-linejoin="round"/>
<path d="M45 46.167C46.933 46.167 48.5 44.6 48.5 42.667C48.5 40.734 46.933 39.167 45 39.167C43.067 39.167 41.5 40.734 41.5 42.667C41.5 44.6 43.067 46.167 45 46.167Z" stroke="black" stroke-width="2" stroke-linecap="round" stroke-linejoin="round"/>
</svg>
