<svg width="88" height="88" viewBox="0 0 88 88" fill="none" xmlns="http://www.w3.org/2000/svg">
<rect width="88" height="88" rx="10" fill="#8392FE"/>
<path d="M45.79 49.21C46.0482 49.3286 46.339 49.3556 46.6146 49.2868C46.8902 49.218 47.1342 49.0573 47.3063 48.8312L47.75 48.25C47.9829 47.9395 48.2848 47.6875 48.632 47.5139C48.9791 47.3404 49.3619 47.25 49.75 47.25H53.5C54.163 47.25 54.7989 47.5134 55.2678 47.9822C55.7366 48.4511 56 49.087 56 49.75V53.5C56 54.163 55.7366 54.7989 55.2678 55.2678C54.7989 55.7366 54.163 56 53.5 56C47.5326 56 41.8097 53.6295 37.5901 49.4099C33.3705 45.1903 31 39.4674 31 33.5C31 32.837 31.2634 32.2011 31.7322 31.7322C32.2011 31.2634 32.837 31 33.5 31H37.25C37.913 31 38.5489 31.2634 39.0178 31.7322C39.4866 32.2011 39.75 32.837 39.75 33.5V37.25C39.75 37.6381 39.6596 38.0209 39.4861 38.368C39.3125 38.7152 39.0605 39.0171 38.75 39.25L38.165 39.6888C37.9355 39.864 37.7738 40.1132 37.7072 40.3942C37.6407 40.6751 37.6735 40.9705 37.8 41.23C39.5084 44.6998 42.318 47.506 45.79 49.21Z" stroke="black" stroke-width="2" stroke-linecap="round" stroke-linejoin="round"/>
</svg>
